<svg xmlns="http://www.w3.org/2000/svg" width="148.495" height="40" viewBox="0 0 148.495 40"><defs><style>.a,.b{fill:#00a6b6;}.b,.d{fill-rule:evenodd;}.c,.d{fill:#4f5259;}</style></defs><path class="a" d="M611,82.5c.756-.216,1.783-.459,3.079-.7a23.118,23.118,0,0,1,4.726-.405,9.877,9.877,0,0,1,3.863.675,5.953,5.953,0,0,1,2.485,1.918,7.978,7.978,0,0,1,1.323,2.971,18.035,18.035,0,0,1,.4,3.808v11.371h-2.565V91.6a18.287,18.287,0,0,0-.3-3.646,6.146,6.146,0,0,0-.973-2.431,3.918,3.918,0,0,0-1.809-1.35,8.327,8.327,0,0,0-2.809-.405,24.381,24.381,0,0,0-3.133.189,9.068,9.068,0,0,0-1.7.351v17.826h-2.565Z" transform="translate(-611 -71.611)"/><path class="a" d="M656.549,101.622c-.756.216-1.783.459-3.079.7a25.211,25.211,0,0,1-4.726.4,9.69,9.69,0,0,1-3.809-.675,6.116,6.116,0,0,1-2.485-1.89,7.9,7.9,0,0,1-1.35-2.944,15.1,15.1,0,0,1-.406-3.808V81.987h2.566V92.574a16.486,16.486,0,0,0,.324,3.646,6.244,6.244,0,0,0,1.026,2.431,3.992,3.992,0,0,0,1.837,1.35,7.87,7.87,0,0,0,2.728.406,24.069,24.069,0,0,0,3.133-.19,9.524,9.524,0,0,0,1.7-.351V81.987h2.566Z" transform="translate(-620.518 -71.804)"/><path class="a" d="M671.038,82.5c.756-.216,1.756-.459,2.971-.7a23.283,23.283,0,0,1,4.726-.405c2.566,0,4.43.756,5.591,2.242.135-.108.378-.27.756-.54a10.377,10.377,0,0,1,1.432-.756,10.768,10.768,0,0,1,4.592-.945,8.725,8.725,0,0,1,3.754.675,5.089,5.089,0,0,1,2.215,1.918,7.828,7.828,0,0,1,1.053,2.971,25.113,25.113,0,0,1,.27,3.781V102.1h-2.566V91.571q0-1.742-.162-3.484a6.977,6.977,0,0,0-.7-2.431,3.579,3.579,0,0,0-1.512-1.458,5.949,5.949,0,0,0-2.566-.486,9.259,9.259,0,0,0-3.808.756,6.89,6.89,0,0,0-1.162.621c-.3.216-.513.378-.648.459a13.489,13.489,0,0,1,.54,2.3,18.144,18.144,0,0,1,.19,2.7v11.587h-2.566V91.6a30.074,30.074,0,0,0-.189-3.484,6.492,6.492,0,0,0-.729-2.431,3.566,3.566,0,0,0-1.567-1.458,5.99,5.99,0,0,0-2.647-.486,24.38,24.38,0,0,0-3.133.189,8.7,8.7,0,0,0-1.62.351v17.853h-2.566Z" transform="translate(-630.229 -71.611)"/><path class="b" d="M722.833,77.317A9.335,9.335,0,0,0,720.7,78.4V67l-2.566.486V96.872a22,22,0,0,0,2.917.756,22.619,22.619,0,0,0,4.484.351,11.548,11.548,0,0,0,4.051-.73,8.894,8.894,0,0,0,3.16-2.106,9.806,9.806,0,0,0,2.052-3.322,12.544,12.544,0,0,0,.729-4.456,14.193,14.193,0,0,0-.621-4.267,9.446,9.446,0,0,0-1.783-3.376,8.539,8.539,0,0,0-2.89-2.188,9.319,9.319,0,0,0-3.916-.783A9.535,9.535,0,0,0,722.833,77.317Zm-.378,18.177a12.721,12.721,0,0,1-1.756-.378V80.856c.3-.216.594-.405.891-.594a7.475,7.475,0,0,1,1.243-.594,11.062,11.062,0,0,1,1.54-.459,9.139,9.139,0,0,1,1.728-.162,6.805,6.805,0,0,1,3.16.675,5.657,5.657,0,0,1,2.053,1.783,7.936,7.936,0,0,1,1.134,2.647,14.282,14.282,0,0,1,.351,3.214,8.755,8.755,0,0,1-2,6.158,6.841,6.841,0,0,1-5.294,2.133A19.149,19.149,0,0,1,722.454,95.495Z" transform="translate(-645.344 -67)"/><path class="b" d="M747.946,87.28a12.9,12.9,0,0,0-.756,4.646,15.979,15.979,0,0,0,.514,4.24,8.925,8.925,0,0,0,1.782,3.35,8.2,8.2,0,0,0,3.106,2.214,11.944,11.944,0,0,0,4.564.783,13.129,13.129,0,0,0,3.565-.432,10.581,10.581,0,0,0,2.08-.756l-.487-2.188a13.749,13.749,0,0,1-1.755.675,11.37,11.37,0,0,1-3.3.4q-3.768-.04-5.51-2.025a9.053,9.053,0,0,1-1.836-5.726h14.288c.014-.095.02-.2.027-.3s.014-.2.027-.3a4.657,4.657,0,0,0,.027-.621c0-3.376-.729-5.888-2.214-7.508a7.717,7.717,0,0,0-5.969-2.431,8.632,8.632,0,0,0-3.295.648,8.083,8.083,0,0,0-2.836,2A10.278,10.278,0,0,0,747.946,87.28Zm12.181-1.918a7.978,7.978,0,0,1,1.485,4.943H749.972a9.022,9.022,0,0,1,.54-2.566,7.1,7.1,0,0,1,1.269-2.134,6.31,6.31,0,0,1,1.891-1.486,5.186,5.186,0,0,1,2.457-.54A4.805,4.805,0,0,1,760.128,85.362Z" transform="translate(-654.658 -71.588)"/><path class="a" d="M784.715,81.389a14.1,14.1,0,0,1,2.377.189,7.85,7.85,0,0,1,1.566.405l-.513,2.215a5.155,5.155,0,0,0-1.269-.324,13.23,13.23,0,0,0-2.539-.162,10.862,10.862,0,0,0-2.647.243,5.763,5.763,0,0,0-1.324.405v17.825H777.8V82.739a22.546,22.546,0,0,1,2.7-.891A16.933,16.933,0,0,1,784.715,81.389Z" transform="translate(-664.472 -71.612)"/><path class="c" d="M801.667,97.871a9.4,9.4,0,0,1-2.269-.324,3.89,3.89,0,0,1-1.62-.919,3.655,3.655,0,0,1-.972-1.566,7.432,7.432,0,0,1-.324-2.431V67.486L799.02,67V92.551a4.755,4.755,0,0,0,.189,1.512,2.439,2.439,0,0,0,.541.918,2.013,2.013,0,0,0,.918.486,10.805,10.805,0,0,0,1.351.27Z" transform="translate(-670.459 -67)"/><path class="c" d="M812.354,102.769c-.864-1.593-1.675-3.268-2.485-5s-1.566-3.484-2.241-5.24c-.7-1.756-1.323-3.538-1.917-5.294s-1.08-3.511-1.486-5.213h2.7c.3,1.269.648,2.62,1.107,4.078s.946,2.944,1.512,4.51c.568,1.54,1.188,3.133,1.864,4.754s1.432,3.214,2.242,4.808c.594-1.62,1.107-3.16,1.54-4.592.459-1.431.864-2.863,1.242-4.294s.756-2.89,1.107-4.375.729-3.106,1.08-4.862h2.566c-.864,3.808-1.81,7.508-2.89,11.1a90.773,90.773,0,0,1-3.484,9.858,21.522,21.522,0,0,1-1.54,3.052,9.317,9.317,0,0,1-1.756,2.106,6.045,6.045,0,0,1-2.241,1.215,11.336,11.336,0,0,1-3.025.406,6.966,6.966,0,0,1-1.81-.243,6.219,6.219,0,0,1-1-.351l.514-2.133a3.2,3.2,0,0,0,.891.324,5.7,5.7,0,0,0,1.512.216,8.28,8.28,0,0,0,2-.243,4.246,4.246,0,0,0,1.594-.811,5.153,5.153,0,0,0,1.269-1.485A12.076,12.076,0,0,0,812.354,102.769Z" transform="translate(-672.691 -71.817)"/><path class="c" d="M718.727,121.928h-.594v-3.187l.594-.54Z" transform="translate(-645.344 -83.414)"/><path class="d" d="M719.645,120.027a1.944,1.944,0,1,1,1.944,1.945A1.936,1.936,0,0,1,719.645,120.027Zm.594,0a1.337,1.337,0,0,0,1.351,1.35,1.354,1.354,0,0,0,1.35-1.35,1.35,1.35,0,1,0-2.7,0Z" transform="translate(-645.829 -83.375)"/><path class="d" d="M725.645,120.027a1.944,1.944,0,1,1,1.944,1.945A1.936,1.936,0,0,1,725.645,120.027Zm.594,0a1.35,1.35,0,1,0,1.351-1.351A1.337,1.337,0,0,0,726.239,120.027Z" transform="translate(-647.752 -83.375)"/><path class="d" d="M731.688,120.027a1.945,1.945,0,1,1,1.945,1.945A1.936,1.936,0,0,1,731.688,120.027Zm.594,0a1.337,1.337,0,0,0,1.351,1.35,1.354,1.354,0,0,0,1.35-1.35,1.35,1.35,0,1,0-2.7,0Z" transform="translate(-649.689 -83.375)"/><path class="c" d="M738.168,118.32h.648v.513a1.291,1.291,0,0,1,2-.216,3.943,3.943,0,0,1,.242.351,4.075,4.075,0,0,1,.243-.351,1.409,1.409,0,0,1,1.891,0,1.631,1.631,0,0,1,.4,1.351v1.945h-.675v-1.918a1.3,1.3,0,0,0-.189-.783.645.645,0,0,0-.621-.3.7.7,0,0,0-.675.351,1.089,1.089,0,0,0-.162.7v1.945H740.6v-1.945a1.269,1.269,0,0,0-.135-.7.8.8,0,0,0-1.135-.216.837.837,0,0,0-.216.216,1.342,1.342,0,0,0-.189.729v1.945h-.675V118.32Z" transform="translate(-651.767 -83.425)"/><path class="d" d="M748.844,121.388a1.142,1.142,0,0,1-1.188-1.081h3.052a1.883,1.883,0,0,0-.54-1.566,1.946,1.946,0,0,0-1.351-.54,1.891,1.891,0,1,0,.054,3.781,1.88,1.88,0,0,0,1-.3,2.072,2.072,0,0,0,.7-.891h-.7A1.081,1.081,0,0,1,748.844,121.388Zm0-2.593a1.127,1.127,0,0,1,1.188.972h-2.35A1.1,1.1,0,0,1,748.844,118.795Z" transform="translate(-654.583 -83.414)"/><path class="c" d="M753.434,118.308h.648v.513a1.1,1.1,0,0,1,1.053-.621v.675h-.054q-.972,0-.972,1.053v1.917h-.675Z" transform="translate(-656.66 -83.413)"/><path class="c" d="M759.719,120.607a1.881,1.881,0,1,1-1.3-2.323,1.9,1.9,0,0,1,1.3,1.3h-.675a1.173,1.173,0,0,0-1.107-.729,1.051,1.051,0,0,0-.864.351,1.366,1.366,0,0,0-.35.891,1.188,1.188,0,0,0,1.161,1.243h.054a1.173,1.173,0,0,0,1.107-.729Z" transform="translate(-657.49 -83.416)"/><path class="c" d="M762.457,118.36h.675V121.9h-.675Z" transform="translate(-659.553 -83.465)"/><path class="c" d="M766.228,119.214a.473.473,0,0,0-.432-.486h-.081a.477.477,0,0,0-.514.4v.054c0,.27.271.4.648.513.54.162,1.135.3,1.162,1.08a1.18,1.18,0,0,1-1.27,1.161,1.2,1.2,0,0,1-1.3-1.134h.675a.583.583,0,0,0,.621.567h0a.506.506,0,0,0,.567-.486v-.054c0-.351-.27-.459-.891-.675-.486-.135-.891-.378-.891-.919a1.2,1.2,0,0,1,2.377-.054Z" transform="translate(-660.19 -83.401)"/><path class="d" d="M775.2,122.765a1.935,1.935,0,0,0,.406-1.324l.054-3.133h-.675v.594a1.365,1.365,0,0,0-1.269-.7,1.891,1.891,0,0,0,0,3.754,1.387,1.387,0,0,0,1.269-.729v.4a1.222,1.222,0,0,1-1.215,1.188,1.284,1.284,0,0,1-.621-.189.843.843,0,0,1-.4-.4h-.783a1.719,1.719,0,0,0,1.756,1.188A2.042,2.042,0,0,0,775.2,122.765Zm-1.54-1.432a1.188,1.188,0,0,1-1.161-1.243c0-.013,0-.02,0-.023s-.01,0-.024,0a1.171,1.171,0,0,1,1.216-1.188,1.107,1.107,0,0,1,.945.4,1.375,1.375,0,0,1,.3.837,1.3,1.3,0,0,1-.351.864,1.249,1.249,0,0,1-.864.351Z" transform="translate(-662.598 -83.413)"/><path class="c" d="M778.637,118.308h.648v.513a1.1,1.1,0,0,1,1.053-.621v.675h-.054q-.972,0-.972,1.053v1.917h-.675v-3.538Z" transform="translate(-664.74 -83.413)"/><path class="d" d="M783.109,118.2a1.878,1.878,0,0,0-1.89,1.89v.108a1.84,1.84,0,0,0,1.89,1.783,1.891,1.891,0,1,0,0-3.781Zm.027,3.079a1.228,1.228,0,0,1-1.242-1.189v-.054a1.187,1.187,0,0,1,1.215-1.188,1.241,1.241,0,0,1,1.216,1.188A1.211,1.211,0,0,1,783.136,121.28Z" transform="translate(-665.568 -83.414)"/><path class="c" d="M791.084,121.9h-.648v-.54a1.225,1.225,0,0,1-1.188.648,1.374,1.374,0,0,1-1.432-1.566v-2.08h.675v1.917c0,.648.243,1.107.946,1.107a.9.9,0,0,0,.972-1.027v-1.971h.675V121.9Z" transform="translate(-667.682 -83.465)"/><path class="d" d="M794.573,118.309h-.648l-.027,4.834h.675v-1.89a1.45,1.45,0,0,0,1.324.7h.081a1.881,1.881,0,0,0-.054-3.754,1.61,1.61,0,0,0-1.351.729Zm1.216.567a1.216,1.216,0,0,1,1.243,1.215.214.214,0,0,0,.026.082,1.246,1.246,0,0,1-1.242,1.188,1.2,1.2,0,0,1-.892-.351,1.244,1.244,0,0,1-.351-.891,1.37,1.37,0,0,1,.351-.891A1.3,1.3,0,0,1,795.789,118.876Z" transform="translate(-669.632 -83.414)"/><path class="c" d="M762.781,117.179a.324.324,0,1,0-.324-.324A.324.324,0,0,0,762.781,117.179Z" transform="translate(-659.553 -82.878)"/></svg>