<svg xmlns="http://www.w3.org/2000/svg" width="93" height="31" viewBox="0 0 93 31" fill="#ffffff"> <path d="M28.7029 15.4837C28.3943 0.182863 8.09292 -5.51842 0.279658 8.81859C0.624676 9.06895 1.10256 9.40741 1.44758 9.65777C0.868767 10.8685 0.45952 12.1535 0.231441 13.4765C0.077439 14.3274 -1.92491e-05 15.1905 3.58812e-09 16.0553C3.58812e-09 23.9991 6.42891 30.4353 14.3579 30.4353C22.2869 30.4353 28.7158 23.9991 28.7158 16.0596C28.7158 15.8662 28.7158 15.675 28.7029 15.4837ZM3.54447 18.0517C3.35589 19.6087 3.47375 20.0933 3.47268 20.2802L3.12766 20.406C2.99694 20.1502 2.66478 19.2477 2.51906 18.0345C2.14297 13.4045 5.29528 9.23227 10.0912 8.45541C14.4897 7.81071 18.6953 10.5432 19.681 14.3716L19.3349 14.4973C19.0442 14.109 18.7263 13.7421 18.3835 13.3992C13.0785 8.06429 4.74132 10.512 3.54447 18.0507V18.0517ZM17.2059 20.6413C16.8299 21.1874 16.322 21.629 15.7296 21.9248C15.1373 22.2206 14.4798 22.361 13.8186 22.3328C13.1574 22.3046 12.5142 22.1088 11.949 21.7636C11.3838 21.4184 10.9151 20.9352 10.5867 20.3591C10.2583 19.7829 10.0809 19.1327 10.0712 18.4691C10.0614 17.8056 10.2196 17.1504 10.5308 16.5648C10.8421 15.9792 11.2964 15.4823 11.8512 15.1205C12.406 14.7588 13.0432 14.544 13.7032 14.4962C14.3421 14.4619 14.9765 14.6218 15.5234 14.9548C16.0702 15.2879 16.5042 15.7786 16.7684 16.363C17.0327 16.9473 17.115 17.598 17.0045 18.23C16.8941 18.862 16.5961 19.4458 16.1494 19.9052L17.2059 20.6413ZM25.3706 20.7928C23.2994 25.5012 19.036 27.965 14.4833 27.9081C5.74959 27.4783 3.21017 17.378 9.04547 13.7301L9.30263 13.9869C9.20298 14.118 8.86439 14.3931 8.31901 15.4622C7.68362 16.7613 7.48968 18.056 7.56897 18.8662C8.02328 25.9257 17.8863 27.3612 21.284 20.3823C25.6085 10.8096 14.1436 1.08866 3.96449 8.51558L3.72984 8.28027C6.40855 4.07469 11.6374 2.19217 16.6327 3.44503C24.2723 5.36516 28.374 13.3433 25.3717 20.7917L25.3706 20.7928Z" fill="black"></path> <path d="M41.5331 10.0748V16.4768C41.5331 19.0218 39.9074 20.9327 36.9194 20.9327C33.9314 20.9327 32.3057 19.027 32.3057 16.4768V10.0748H34.7323V16.2923C34.7323 17.8467 35.4985 18.7306 36.9194 18.7306C38.3402 18.7306 39.1065 17.8467 39.1065 16.2923V10.0748H41.5331ZM50.5568 17.6653C50.5568 19.5099 49.0395 20.8363 46.5977 20.8363H42.7339V10.1628H46.4535C48.6081 10.1628 50.0301 11.1535 50.0301 12.739C50.0301 13.9431 49.4394 14.6747 48.5615 15.025C49.7418 15.456 50.5557 16.2332 50.5557 17.6664L50.5568 17.6653ZM45.1617 12.2084V14.4654H46.4384C47.1884 14.4654 47.6988 14.0509 47.6988 13.3379C47.6988 12.625 47.1884 12.2095 46.4384 12.2095L45.1617 12.2084ZM46.5023 18.7938C47.5395 18.7938 48.128 18.3368 48.128 17.4529C48.128 16.569 47.5373 16.112 46.5023 16.112H45.1606V18.7949L46.5023 18.7938ZM51.4975 10.166H53.9252V20.8394H51.4964L51.4975 10.166ZM59.7875 14.4799C61.7025 15.1203 62.6931 15.9431 62.6931 17.5887C62.6931 19.799 60.9211 21.0187 58.8305 21.0187C56.8992 21.0187 55.4144 20.1959 54.7912 18.6715L56.7225 17.2995C57.0737 18.2602 57.984 18.8539 58.8901 18.8539C59.6878 18.8539 60.2633 18.4394 60.2633 17.7565C60.2633 17.1161 59.8297 16.7203 58.2355 16.1711C56.5112 15.5763 55.2345 14.7535 55.2345 12.9856C55.2345 11.2789 56.7192 9.98047 58.8738 9.98047C60.5819 9.98047 61.9085 10.6364 62.5295 11.9317L60.5982 13.2126C60.2329 12.4229 59.6585 11.9784 58.7806 11.9784C58.0436 11.9784 57.5018 12.3618 57.5018 12.911C57.5018 13.5328 58.1098 13.9162 59.7864 14.4799H59.7875ZM74.7341 15.5016C74.7341 18.6415 72.3714 21.0197 69.0507 21.0197C65.6508 21.0197 63.3673 18.6871 63.3673 15.8674C63.3673 14.0384 64.1172 12.712 65.2195 11.8437L64.8358 11.4779C65.6822 10.6395 67.2299 9.98358 69.0496 9.98358C72.3693 9.98358 74.7341 12.3929 74.7341 15.5016ZM72.2761 15.5016C72.2761 13.5815 70.9993 12.1784 69.0518 12.1784C67.9181 12.1784 67.0728 12.5929 66.559 13.1234L66.9416 13.4892C66.3509 13.9618 65.8242 14.6167 65.8242 15.7908C65.8242 17.4063 67.0164 18.8239 69.0485 18.8239C70.9972 18.8249 72.2739 17.4218 72.2739 15.5016H72.2761ZM78.1502 12.3618V14.8312H82.8918V16.599H78.147V20.8363H75.7214V10.1628H83.3676V12.3618H78.1502ZM92.9982 12.3618H89.8693V20.8373H87.4438V12.3618H84.3008V10.167H93.0004L92.9982 12.3618Z" fill="black"></path> </svg>